#N canvas 1089 342 536 640 12;
#X obj 160 591 outlet~;
#X obj 160 514 *~;
#X obj 234 119 mtof;
#X obj 286 454 pow~ 4;
#X obj 194 20 inlet;
#X obj 194 44 unpack 0 0 0;
#X obj 286 193 sel 1;
#X obj 160 540 expr~ sin($v1);
#X obj 286 479 *~;
#X obj 286 429 line~;
#X obj 333 193 sel 0;
#X msg 333 405 0 2000;
#X obj 97 404 *~;
#X obj 115 352 line~;
#X obj 79 476 cos~;
#X obj 79 446 +~;
#X obj 115 327 pack 0 50;
#X obj 40 376 phasor~;
#X obj 97 276 osc~;
#X obj 31 216 r cm;
#X text 35 199 carrier;
#X text 102 199 mod 1;
#X obj 97 216 r m1;
#X obj 186 404 *~;
#X obj 204 352 line~;
#X obj 204 327 pack 0 50;
#X obj 186 276 osc~;
#X text 191 199 mod 2;
#X obj 186 216 r m2;
#X obj 204 302 r i2;
#X obj 115 302 r i1;
#X text 147 301 index;
#X obj 306 288 pow~ 4;
#X obj 306 263 line~;
#X msg 306 234 1 50;
#X msg 286 405 1 30;
#X msg 353 234 0 3000;
#X obj 412 287 pow~ 4;
#X obj 412 262 line~;
#X msg 412 233 1 150;
#X msg 459 233 0 1300;
#X obj 115 376 *~;
#X obj 204 376 *~;
#X obj 234 70 * 60;
#X obj 234 94 + 30;
#X obj 234 143 pack 0 30;
#X obj 234 167 line~;
#X obj 31 249 *~;
#X obj 97 249 *~;
#X obj 186 249 *~;
#X obj 346 118 pack 0 30;
#X obj 346 142 line~;
#X obj 347 454 *~ 1.2;
#X obj 160 564 *~ 0.15;
#X obj 31 477 cos~;
#X obj 31 447 +~;
#X obj 31 593 outlet~;
#X obj 31 516 *~;
#X obj 31 542 expr~ sin($v1);
#X obj 31 566 *~ 0.15;
#X obj 31 327 phasor~;
#X obj 31 302 +~ 3;
#X connect 1 0 7 0;
#X connect 2 0 45 0;
#X connect 3 0 8 0;
#X connect 4 0 5 0;
#X connect 5 0 6 0;
#X connect 5 1 43 0;
#X connect 5 2 50 0;
#X connect 6 0 35 0;
#X connect 6 0 34 0;
#X connect 6 0 39 0;
#X connect 6 1 10 0;
#X connect 7 0 53 0;
#X connect 8 0 1 1;
#X connect 8 0 57 1;
#X connect 9 0 3 0;
#X connect 10 0 11 0;
#X connect 10 0 36 0;
#X connect 10 0 40 0;
#X connect 11 0 9 0;
#X connect 12 0 15 1;
#X connect 12 0 55 1;
#X connect 13 0 41 0;
#X connect 14 0 1 0;
#X connect 15 0 14 0;
#X connect 16 0 13 0;
#X connect 17 0 15 0;
#X connect 18 0 12 0;
#X connect 19 0 47 0;
#X connect 22 0 48 0;
#X connect 23 0 15 1;
#X connect 23 0 55 1;
#X connect 24 0 42 0;
#X connect 25 0 24 0;
#X connect 26 0 23 0;
#X connect 28 0 49 0;
#X connect 29 0 25 0;
#X connect 30 0 16 0;
#X connect 32 0 41 1;
#X connect 33 0 32 0;
#X connect 34 0 33 0;
#X connect 35 0 9 0;
#X connect 36 0 33 0;
#X connect 37 0 42 1;
#X connect 38 0 37 0;
#X connect 39 0 38 0;
#X connect 40 0 38 0;
#X connect 41 0 12 1;
#X connect 42 0 23 1;
#X connect 43 0 44 0;
#X connect 44 0 2 0;
#X connect 45 0 46 0;
#X connect 46 0 49 1;
#X connect 46 0 48 1;
#X connect 46 0 47 1;
#X connect 47 0 17 0;
#X connect 47 0 61 0;
#X connect 48 0 18 0;
#X connect 49 0 26 0;
#X connect 50 0 51 0;
#X connect 51 0 52 0;
#X connect 52 0 8 1;
#X connect 53 0 0 0;
#X connect 54 0 57 0;
#X connect 55 0 54 0;
#X connect 57 0 58 0;
#X connect 58 0 59 0;
#X connect 59 0 56 0;
#X connect 60 0 55 0;
#X connect 61 0 60 0;
