#N canvas 555 179 450 300 12;
#X obj 57 168 dac~;
#N canvas 1156 191 562 400 mmp-ctrl 0;
#X obj 16 37 r fromGUI;
#X obj 16 61 list trim;
#X obj 16 110 route touch;
#X obj 16 346 outlet;
#X obj 407 37 r fromSystem;
#X obj 407 61 list trim;
#X obj 407 86 route /tilts;
#X obj 407 110 unpack;
#X obj 407 144 + 1;
#X obj 407 234 s i1;
#X obj 446 144 + 1;
#X obj 446 234 s i2;
#X obj 72 234 s cm;
#X obj 130 234 s m1;
#X obj 186 234 s m2;
#X obj 446 173 * 0.3;
#X obj 407 173 * 0.3;
#X obj 72 144 * 9;
#X obj 129 144 * 9;
#X obj 186 144 * 9;
#X obj 72 173 + 0.25;
#X obj 130 173 + 0.25;
#X obj 186 173 + 0.25;
#X obj 407 203 *;
#X obj 446 203 *;
#N canvas 893 183 256 241 q 0;
#X obj 58 25 inlet;
#X obj 59 181 outlet;
#X obj 158 22 inlet;
#X obj 119 119 spigot;
#X obj 158 46 * -1;
#X obj 158 70 + 1;
#X obj 59 120 spigot;
#X obj 59 91 int;
#X obj 59 144 / 4;
#X obj 59 61 * 4;
#X connect 0 0 3 0;
#X connect 0 0 9 0;
#X connect 2 0 4 0;
#X connect 2 0 6 1;
#X connect 3 0 1 0;
#X connect 4 0 5 0;
#X connect 5 0 3 1;
#X connect 6 0 8 0;
#X connect 7 0 6 0;
#X connect 8 0 1 0;
#X connect 9 0 7 0;
#X restore 186 203 pd q;
#X obj 276 56 loadbang;
#X msg 240 173 1;
#N canvas 893 183 256 241 q 0;
#X obj 58 25 inlet;
#X obj 59 181 outlet;
#X obj 158 22 inlet;
#X obj 119 119 spigot;
#X obj 158 46 * -1;
#X obj 158 70 + 1;
#X obj 59 120 spigot;
#X obj 59 91 int;
#X obj 59 144 / 4;
#X obj 59 61 * 4;
#X connect 0 0 3 0;
#X connect 0 0 9 0;
#X connect 2 0 4 0;
#X connect 2 0 6 1;
#X connect 3 0 1 0;
#X connect 4 0 5 0;
#X connect 5 0 3 1;
#X connect 6 0 8 0;
#X connect 7 0 6 0;
#X connect 8 0 1 0;
#X connect 9 0 7 0;
#X restore 130 203 pd q;
#N canvas 893 183 256 241 q 0;
#X obj 58 25 inlet;
#X obj 59 181 outlet;
#X obj 158 22 inlet;
#X obj 119 119 spigot;
#X obj 158 46 * -1;
#X obj 158 70 + 1;
#X obj 59 120 spigot;
#X obj 59 91 int;
#X obj 59 144 / 4;
#X obj 59 61 * 4;
#X connect 0 0 3 0;
#X connect 0 0 9 0;
#X connect 2 0 4 0;
#X connect 2 0 6 1;
#X connect 3 0 1 0;
#X connect 4 0 5 0;
#X connect 5 0 3 1;
#X connect 6 0 8 0;
#X connect 7 0 6 0;
#X connect 8 0 1 0;
#X connect 9 0 7 0;
#X restore 72 203 pd q;
#X msg 276 173 list /quant 1;
#X obj 275 203 s toGUI;
#X obj 16 86 route /myMultiTouch /car /mod1 /mod2 /quant /rand;
#N canvas 577 57 450 300 rnd 0;
#X obj 157 31 inlet;
#X obj 70 113 random 100;
#X obj 70 137 / 100;
#X obj 180 113 random 100;
#X obj 180 137 / 100;
#X obj 288 113 random 100;
#X obj 288 137 / 100;
#X obj 157 83 t b b b;
#X msg 70 163 list /car \$1;
#X msg 180 163 list /mod1 \$1;
#X msg 288 163 list /mod2 \$1;
#X obj 179 203 outlet;
#X obj 157 55 sel 1;
#X connect 0 0 12 0;
#X connect 1 0 2 0;
#X connect 2 0 8 0;
#X connect 3 0 4 0;
#X connect 4 0 9 0;
#X connect 5 0 6 0;
#X connect 6 0 10 0;
#X connect 7 0 1 0;
#X connect 7 1 3 0;
#X connect 7 2 5 0;
#X connect 8 0 11 0;
#X connect 9 0 11 0;
#X connect 10 0 11 0;
#X connect 12 0 7 0;
#X restore 299 144 pd rnd;
#X obj 16 266 unpack 0 0 0 0;
#X obj 16 315 pack 0 0 0 0;
#X obj 16 290 - 1;
#X msg 315 111 1;
#X connect 0 0 1 0;
#X connect 1 0 32 0;
#X connect 2 0 34 0;
#X connect 4 0 5 0;
#X connect 5 0 6 0;
#X connect 6 0 7 0;
#X connect 7 0 8 0;
#X connect 7 1 10 0;
#X connect 8 0 16 0;
#X connect 10 0 15 0;
#X connect 15 0 24 0;
#X connect 15 0 24 1;
#X connect 16 0 23 0;
#X connect 16 0 23 1;
#X connect 17 0 20 0;
#X connect 18 0 21 0;
#X connect 19 0 22 0;
#X connect 20 0 29 0;
#X connect 21 0 28 0;
#X connect 22 0 25 0;
#X connect 23 0 9 0;
#X connect 24 0 11 0;
#X connect 25 0 14 0;
#X connect 26 0 27 0;
#X connect 26 0 30 0;
#X connect 26 0 37 0;
#X connect 27 0 25 1;
#X connect 27 0 28 1;
#X connect 27 0 29 1;
#X connect 28 0 13 0;
#X connect 29 0 12 0;
#X connect 30 0 31 0;
#X connect 32 0 2 0;
#X connect 32 1 17 0;
#X connect 32 2 18 0;
#X connect 32 3 19 0;
#X connect 32 4 25 1;
#X connect 32 4 28 1;
#X connect 32 4 29 1;
#X connect 32 5 33 0;
#X connect 33 0 31 0;
#X connect 34 0 36 0;
#X connect 34 1 35 1;
#X connect 34 2 35 2;
#X connect 34 3 35 3;
#X connect 35 0 3 0;
#X connect 36 0 35 0;
#X connect 37 0 33 0;
#X restore 57 60 pd mmp-ctrl;
#X obj 57 102 clone fm-synth 4;
#N canvas 121 146 450 300 chorus 0;
#X obj 21 13 inlet~;
#X obj 62 199 outlet~;
#X obj 196 199 outlet~;
#X obj 63 64 delwrite~ chorus 300;
#X obj 196 121 *~ -1;
#X obj 62 173 delread4~ chorus;
#X obj 196 173 delread4~ chorus;
#X obj 21 37 *~ 0.5;
#X obj 62 143 +~ 150;
#X obj 196 148 +~ 150;
#X obj 62 95 osc~ 0.02;
#X obj 242 8 inlet~;
#X obj 242 32 *~ 0.5;
#X obj 79 35 *~ 0.3;
#X obj 149 34 *~ 0.3;
#X obj 62 120 *~ 140;
#X connect 0 0 7 0;
#X connect 0 0 13 0;
#X connect 4 0 9 0;
#X connect 5 0 1 0;
#X connect 6 0 2 0;
#X connect 7 0 1 0;
#X connect 8 0 5 0;
#X connect 9 0 6 0;
#X connect 10 0 15 0;
#X connect 11 0 12 0;
#X connect 11 0 14 0;
#X connect 12 0 2 0;
#X connect 13 0 3 0;
#X connect 14 0 3 0;
#X connect 15 0 4 0;
#X connect 15 0 8 0;
#X restore 57 136 pd chorus;
#X connect 1 0 2 0;
#X connect 2 0 3 0;
#X connect 2 1 3 1;
#X connect 3 0 0 0;
#X connect 3 1 0 1;
