#N canvas 915 83 326 307 10;
#N canvas 624 477 252 339 long 0;
#X obj 63 264 hip~ 5;
#X obj 63 220 line~;
#X obj 78 59 r length;
#X obj 63 81 f;
#X obj 63 286 outlet~;
#X obj 63 30 inlet;
#X obj 63 103 t f f;
#X obj 63 176 pack 0 0;
#X msg 63 198 0 \, \$1 \$2;
#X obj 108 152 / 1;
#X obj 155 130 r transp;
#X obj 9 32 r plong;
#X obj 9 54 sel 1;
#X obj 63 242 tabread4~ /table-rec;
#X obj 164 55 samplerate~;
#X floatatom 164 80 6 0 0 0 - - - 0;
#X obj 163 28 loadbang;
#X obj 164 100 / 1000;
#X obj 108 130 /;
#X connect 0 0 4 0;
#X connect 1 0 13 0;
#X connect 2 0 3 1;
#X connect 3 0 6 0;
#X connect 5 0 3 0;
#X connect 6 0 7 0;
#X connect 6 1 18 0;
#X connect 7 0 8 0;
#X connect 8 0 1 0;
#X connect 9 0 7 1;
#X connect 10 0 9 1;
#X connect 11 0 12 0;
#X connect 12 0 3 0;
#X connect 13 0 0 0;
#X connect 14 0 15 0;
#X connect 15 0 17 0;
#X connect 16 0 14 0;
#X connect 17 0 18 1;
#X connect 18 0 9 0;
#X restore 42 57 pd long;
#N canvas 1470 204 637 714 gran 0;
#X obj 199 538 hip~ 5;
#X obj 199 596 outlet~;
#X obj 198 45 inlet;
#X obj 198 145 metro 100;
#X obj 198 79 tgl 15 0 empty empty empty 17 7 0 10 #fcfcfc #000000 #000000 0 1;
#X obj 276 84 hsl 128 15 10 1000 1 0 empty repeat repeat -2 -8 0 10 #fcfcc4 #000000 #000000 0 1;
#X obj 271 171 random 100;
#X obj 271 193 / 100;
#X obj 271 215 + 1;
#X obj 198 191 bng 15 250 50 0 empty empty empty 17 7 0 10 #fcfcfc #000000 #000000;
#X obj 249 110 * 100;
#X obj 328 142 hsl 128 15 0 500 0 0 empty repeat_jitter repeat_jitter -2 -8 0 10 #fce0c4 #000000 #000000 0 1;
#X obj 37 117 hsl 128 15 50 500 0 0 empty empty empty -2 -8 0 10 #fcfcfc #000000 #000000 0 1;
#X obj 34 143 s glength;
#X obj 199 290 list append;
#X obj 262 319 r transp;
#X obj 199 343 list append;
#X obj 439 236 r start;
#X obj 424 170 random 100;
#X obj 424 192 / 100;
#X obj 424 214 + 1;
#X obj 481 140 hsl 128 15 0 500 0 0 empty start_jitter start_jitter -2 -8 0 10 #fce0c4 #000000 #000000 0 1;
#X obj 34 172 hsl 128 15 0 0.8 0 0 empty empty empty -2 -8 0 10 #fcfcfc #000000 #000000 0 1;
#X obj 33 199 s start;
#N canvas 312 207 450 300 count 0;
#X obj 37 37 inlet;
#X obj 82 92 + 1;
#X floatatom 42 158 5 0 0 0 - - - 0;
#X obj 24 189 outlet;
#X obj 41 92 f;
#X obj 42 136 mod 6;
#X connect 0 0 4 0;
#X connect 1 0 4 1;
#X connect 1 0 5 0;
#X connect 2 0 3 0;
#X connect 4 0 1 0;
#X connect 5 0 2 0;
#X restore 198 236 pd count;
#X obj 41 56 hsl 128 15 0.25 16 1 0 empty empty empty -2 -8 0 10 #fcfcfc #000000 #000000 0 1;
#X obj 38 88 s transp;
#X obj 199 560 clip~ -1 1;
#X floatatom 110 89 5 0 0 0 - - - 0;
#X obj 182 109 r pgran;
#X obj 424 260 *;
#N canvas 1140 494 362 550 grain 0;
#X obj 60 303 line~;
#X obj 114 68 r length;
#X obj 99 95 f;
#X obj 116 126 r transp;
#X obj 60 258 pack 0 0 0;
#X obj 174 181 r glength;
#X obj 60 435 outlet~;
#X obj 60 25 inlet;
#X obj 60 407 *~;
#N canvas 865 163 274 272 env 0;
#X obj 67 60 inlet;
#X obj 67 147 line~;
#X obj 118 104 del 100;
#X obj 67 168 outlet~;
#X obj 157 48 inlet;
#X msg 67 126 1 15;
#X msg 118 125 0 15;
#X obj 157 81 - 30;
#X connect 0 0 2 0;
#X connect 0 0 5 0;
#X connect 1 0 3 0;
#X connect 2 0 6 0;
#X connect 4 0 7 0;
#X connect 5 0 1 0;
#X connect 6 0 1 0;
#X connect 7 0 2 1;
#X restore 79 377 pd env;
#X obj 112 350 r glength;
#X obj 60 47 unpack;
#X msg 60 280 \$1 \, \$2 \$3;
#X obj 60 115 *;
#X obj 60 69 t f b b;
#X obj 60 137 t f f;
#X obj 87 220 +;
#X obj 102 175 * 1;
#X obj 116 148 t f b;
#X obj 101 197 * 44.1;
#X obj 60 324 tabread4~ /table-rec;
#X obj 188 95 samplerate~;
#X obj 187 71 loadbang;
#X obj 188 116 / 1000;
#X connect 0 0 20 0;
#X connect 1 0 2 1;
#X connect 2 0 13 1;
#X connect 3 0 18 0;
#X connect 4 0 12 0;
#X connect 5 0 17 0;
#X connect 5 0 4 2;
#X connect 7 0 11 0;
#X connect 8 0 6 0;
#X connect 9 0 8 1;
#X connect 10 0 9 1;
#X connect 11 0 14 0;
#X connect 12 0 0 0;
#X connect 13 0 15 0;
#X connect 14 0 13 0;
#X connect 14 1 9 0;
#X connect 14 2 2 0;
#X connect 15 0 4 0;
#X connect 15 1 16 0;
#X connect 16 0 4 1;
#X connect 17 0 19 0;
#X connect 18 0 17 1;
#X connect 18 1 17 0;
#X connect 19 0 16 1;
#X connect 20 0 8 0;
#X connect 21 0 23 0;
#X connect 22 0 21 0;
#X connect 23 0 19 1;
#X restore 281 502 pd grain;
#X obj 199 371 route 0 1 2 3 4 5;
#N canvas 1140 494 362 550 grain 0;
#X obj 60 303 line~;
#X obj 114 68 r length;
#X obj 99 95 f;
#X obj 116 126 r transp;
#X obj 60 258 pack 0 0 0;
#X obj 174 181 r glength;
#X obj 60 435 outlet~;
#X obj 60 25 inlet;
#X obj 60 407 *~;
#N canvas 865 163 274 272 env 0;
#X obj 67 60 inlet;
#X obj 67 147 line~;
#X obj 118 104 del 100;
#X obj 67 168 outlet~;
#X obj 157 48 inlet;
#X msg 67 126 1 15;
#X msg 118 125 0 15;
#X obj 157 81 - 30;
#X connect 0 0 2 0;
#X connect 0 0 5 0;
#X connect 1 0 3 0;
#X connect 2 0 6 0;
#X connect 4 0 7 0;
#X connect 5 0 1 0;
#X connect 6 0 1 0;
#X connect 7 0 2 1;
#X restore 79 377 pd env;
#X obj 112 350 r glength;
#X obj 60 47 unpack;
#X msg 60 280 \$1 \, \$2 \$3;
#X obj 60 115 *;
#X obj 60 69 t f b b;
#X obj 60 137 t f f;
#X obj 87 220 +;
#X obj 102 175 * 1;
#X obj 116 148 t f b;
#X obj 101 197 * 44.1;
#X obj 60 324 tabread4~ /table-rec;
#X obj 188 95 samplerate~;
#X obj 187 71 loadbang;
#X obj 188 116 / 1000;
#X connect 0 0 20 0;
#X connect 1 0 2 1;
#X connect 2 0 13 1;
#X connect 3 0 18 0;
#X connect 4 0 12 0;
#X connect 5 0 17 0;
#X connect 5 0 4 2;
#X connect 7 0 11 0;
#X connect 8 0 6 0;
#X connect 9 0 8 1;
#X connect 10 0 9 1;
#X connect 11 0 14 0;
#X connect 12 0 0 0;
#X connect 13 0 15 0;
#X connect 14 0 13 0;
#X connect 14 1 9 0;
#X connect 14 2 2 0;
#X connect 15 0 4 0;
#X connect 15 1 16 0;
#X connect 16 0 4 1;
#X connect 17 0 19 0;
#X connect 18 0 17 1;
#X connect 18 1 17 0;
#X connect 19 0 16 1;
#X connect 20 0 8 0;
#X connect 21 0 23 0;
#X connect 22 0 21 0;
#X connect 23 0 19 1;
#X restore 267 480 pd grain;
#N canvas 1140 494 362 550 grain 0;
#X obj 60 303 line~;
#X obj 114 68 r length;
#X obj 99 95 f;
#X obj 116 126 r transp;
#X obj 60 258 pack 0 0 0;
#X obj 174 181 r glength;
#X obj 60 435 outlet~;
#X obj 60 25 inlet;
#X obj 60 407 *~;
#N canvas 865 163 274 272 env 0;
#X obj 67 60 inlet;
#X obj 67 147 line~;
#X obj 118 104 del 100;
#X obj 67 168 outlet~;
#X obj 157 48 inlet;
#X msg 67 126 1 15;
#X msg 118 125 0 15;
#X obj 157 81 - 30;
#X connect 0 0 2 0;
#X connect 0 0 5 0;
#X connect 1 0 3 0;
#X connect 2 0 6 0;
#X connect 4 0 7 0;
#X connect 5 0 1 0;
#X connect 6 0 1 0;
#X connect 7 0 2 1;
#X restore 79 377 pd env;
#X obj 112 350 r glength;
#X obj 60 47 unpack;
#X msg 60 280 \$1 \, \$2 \$3;
#X obj 60 115 *;
#X obj 60 69 t f b b;
#X obj 60 137 t f f;
#X obj 87 220 +;
#X obj 102 175 * 1;
#X obj 116 148 t f b;
#X obj 101 197 * 44.1;
#X obj 60 324 tabread4~ /table-rec;
#X obj 188 95 samplerate~;
#X obj 187 71 loadbang;
#X obj 188 116 / 1000;
#X connect 0 0 20 0;
#X connect 1 0 2 1;
#X connect 2 0 13 1;
#X connect 3 0 18 0;
#X connect 4 0 12 0;
#X connect 5 0 17 0;
#X connect 5 0 4 2;
#X connect 7 0 11 0;
#X connect 8 0 6 0;
#X connect 9 0 8 1;
#X connect 10 0 9 1;
#X connect 11 0 14 0;
#X connect 12 0 0 0;
#X connect 13 0 15 0;
#X connect 14 0 13 0;
#X connect 14 1 9 0;
#X connect 14 2 2 0;
#X connect 15 0 4 0;
#X connect 15 1 16 0;
#X connect 16 0 4 1;
#X connect 17 0 19 0;
#X connect 18 0 17 1;
#X connect 18 1 17 0;
#X connect 19 0 16 1;
#X connect 20 0 8 0;
#X connect 21 0 23 0;
#X connect 22 0 21 0;
#X connect 23 0 19 1;
#X restore 248 460 pd grain;
#N canvas 1140 494 362 550 grain 0;
#X obj 60 303 line~;
#X obj 114 68 r length;
#X obj 99 95 f;
#X obj 116 126 r transp;
#X obj 60 258 pack 0 0 0;
#X obj 174 181 r glength;
#X obj 60 435 outlet~;
#X obj 60 25 inlet;
#X obj 60 407 *~;
#N canvas 865 163 274 272 env 0;
#X obj 67 60 inlet;
#X obj 67 147 line~;
#X obj 118 104 del 100;
#X obj 67 168 outlet~;
#X obj 157 48 inlet;
#X msg 67 126 1 15;
#X msg 118 125 0 15;
#X obj 157 81 - 30;
#X connect 0 0 2 0;
#X connect 0 0 5 0;
#X connect 1 0 3 0;
#X connect 2 0 6 0;
#X connect 4 0 7 0;
#X connect 5 0 1 0;
#X connect 6 0 1 0;
#X connect 7 0 2 1;
#X restore 79 377 pd env;
#X obj 112 350 r glength;
#X obj 60 47 unpack;
#X msg 60 280 \$1 \, \$2 \$3;
#X obj 60 115 *;
#X obj 60 69 t f b b;
#X obj 60 137 t f f;
#X obj 87 220 +;
#X obj 102 175 * 1;
#X obj 116 148 t f b;
#X obj 101 197 * 44.1;
#X obj 60 324 tabread4~ /table-rec;
#X obj 188 95 samplerate~;
#X obj 187 71 loadbang;
#X obj 188 116 / 1000;
#X connect 0 0 20 0;
#X connect 1 0 2 1;
#X connect 2 0 13 1;
#X connect 3 0 18 0;
#X connect 4 0 12 0;
#X connect 5 0 17 0;
#X connect 5 0 4 2;
#X connect 7 0 11 0;
#X connect 8 0 6 0;
#X connect 9 0 8 1;
#X connect 10 0 9 1;
#X connect 11 0 14 0;
#X connect 12 0 0 0;
#X connect 13 0 15 0;
#X connect 14 0 13 0;
#X connect 14 1 9 0;
#X connect 14 2 2 0;
#X connect 15 0 4 0;
#X connect 15 1 16 0;
#X connect 16 0 4 1;
#X connect 17 0 19 0;
#X connect 18 0 17 1;
#X connect 18 1 17 0;
#X connect 19 0 16 1;
#X connect 20 0 8 0;
#X connect 21 0 23 0;
#X connect 22 0 21 0;
#X connect 23 0 19 1;
#X restore 232 438 pd grain;
#N canvas 1140 494 362 550 grain 0;
#X obj 60 303 line~;
#X obj 114 68 r length;
#X obj 99 95 f;
#X obj 116 126 r transp;
#X obj 60 258 pack 0 0 0;
#X obj 174 181 r glength;
#X obj 60 435 outlet~;
#X obj 60 25 inlet;
#X obj 60 407 *~;
#N canvas 865 163 274 272 env 0;
#X obj 67 60 inlet;
#X obj 67 147 line~;
#X obj 118 104 del 100;
#X obj 67 168 outlet~;
#X obj 157 48 inlet;
#X msg 67 126 1 15;
#X msg 118 125 0 15;
#X obj 157 81 - 30;
#X connect 0 0 2 0;
#X connect 0 0 5 0;
#X connect 1 0 3 0;
#X connect 2 0 6 0;
#X connect 4 0 7 0;
#X connect 5 0 1 0;
#X connect 6 0 1 0;
#X connect 7 0 2 1;
#X restore 79 377 pd env;
#X obj 112 350 r glength;
#X obj 60 47 unpack;
#X msg 60 280 \$1 \, \$2 \$3;
#X obj 60 115 *;
#X obj 60 69 t f b b;
#X obj 60 137 t f f;
#X obj 87 220 +;
#X obj 102 175 * 1;
#X obj 116 148 t f b;
#X obj 101 197 * 44.1;
#X obj 60 324 tabread4~ /table-rec;
#X obj 188 95 samplerate~;
#X obj 187 71 loadbang;
#X obj 188 116 / 1000;
#X connect 0 0 20 0;
#X connect 1 0 2 1;
#X connect 2 0 13 1;
#X connect 3 0 18 0;
#X connect 4 0 12 0;
#X connect 5 0 17 0;
#X connect 5 0 4 2;
#X connect 7 0 11 0;
#X connect 8 0 6 0;
#X connect 9 0 8 1;
#X connect 10 0 9 1;
#X connect 11 0 14 0;
#X connect 12 0 0 0;
#X connect 13 0 15 0;
#X connect 14 0 13 0;
#X connect 14 1 9 0;
#X connect 14 2 2 0;
#X connect 15 0 4 0;
#X connect 15 1 16 0;
#X connect 16 0 4 1;
#X connect 17 0 19 0;
#X connect 18 0 17 1;
#X connect 18 1 17 0;
#X connect 19 0 16 1;
#X connect 20 0 8 0;
#X connect 21 0 23 0;
#X connect 22 0 21 0;
#X connect 23 0 19 1;
#X restore 215 416 pd grain;
#N canvas 1140 494 362 550 grain 0;
#X obj 60 303 line~;
#X obj 114 68 r length;
#X obj 99 95 f;
#X obj 116 126 r transp;
#X obj 60 258 pack 0 0 0;
#X obj 174 181 r glength;
#X obj 60 435 outlet~;
#X obj 60 25 inlet;
#X obj 60 407 *~;
#N canvas 865 163 274 272 env 0;
#X obj 67 60 inlet;
#X obj 67 147 line~;
#X obj 118 104 del 100;
#X obj 67 168 outlet~;
#X obj 157 48 inlet;
#X msg 67 126 1 15;
#X msg 118 125 0 15;
#X obj 157 81 - 30;
#X connect 0 0 2 0;
#X connect 0 0 5 0;
#X connect 1 0 3 0;
#X connect 2 0 6 0;
#X connect 4 0 7 0;
#X connect 5 0 1 0;
#X connect 6 0 1 0;
#X connect 7 0 2 1;
#X restore 79 377 pd env;
#X obj 112 350 r glength;
#X obj 60 47 unpack;
#X msg 60 280 \$1 \, \$2 \$3;
#X obj 60 115 *;
#X obj 60 69 t f b b;
#X obj 60 137 t f f;
#X obj 87 220 +;
#X obj 102 175 * 1;
#X obj 116 148 t f b;
#X obj 101 197 * 44.1;
#X obj 60 324 tabread4~ /table-rec;
#X obj 188 95 samplerate~;
#X obj 187 71 loadbang;
#X obj 188 116 / 1000;
#X connect 0 0 20 0;
#X connect 1 0 2 1;
#X connect 2 0 13 1;
#X connect 3 0 18 0;
#X connect 4 0 12 0;
#X connect 5 0 17 0;
#X connect 5 0 4 2;
#X connect 7 0 11 0;
#X connect 8 0 6 0;
#X connect 9 0 8 1;
#X connect 10 0 9 1;
#X connect 11 0 14 0;
#X connect 12 0 0 0;
#X connect 13 0 15 0;
#X connect 14 0 13 0;
#X connect 14 1 9 0;
#X connect 14 2 2 0;
#X connect 15 0 4 0;
#X connect 15 1 16 0;
#X connect 16 0 4 1;
#X connect 17 0 19 0;
#X connect 18 0 17 1;
#X connect 18 1 17 0;
#X connect 19 0 16 1;
#X connect 20 0 8 0;
#X connect 21 0 23 0;
#X connect 22 0 21 0;
#X connect 23 0 19 1;
#X restore 199 396 pd grain;
#X connect 0 0 27 0;
#X connect 2 0 4 0;
#X connect 3 0 6 0;
#X connect 3 0 9 0;
#X connect 3 0 18 0;
#X connect 4 0 3 0;
#X connect 5 0 10 1;
#X connect 6 0 7 0;
#X connect 7 0 8 0;
#X connect 8 0 10 0;
#X connect 9 0 24 0;
#X connect 10 0 3 1;
#X connect 11 0 6 1;
#X connect 12 0 13 0;
#X connect 14 0 16 0;
#X connect 15 0 16 1;
#X connect 16 0 32 0;
#X connect 17 0 30 1;
#X connect 18 0 19 0;
#X connect 19 0 20 0;
#X connect 20 0 30 0;
#X connect 21 0 18 1;
#X connect 22 0 23 0;
#X connect 24 0 14 0;
#X connect 25 0 26 0;
#X connect 25 0 28 0;
#X connect 27 0 1 0;
#X connect 29 0 3 0;
#X connect 30 0 14 1;
#X connect 31 0 0 0;
#X connect 32 0 37 0;
#X connect 32 1 36 0;
#X connect 32 2 35 0;
#X connect 32 3 34 0;
#X connect 32 4 33 0;
#X connect 32 5 31 0;
#X connect 33 0 0 0;
#X connect 34 0 0 0;
#X connect 35 0 0 0;
#X connect 36 0 0 0;
#X connect 37 0 0 0;
#X restore 96 57 pd gran;
#N canvas 866 774 1582 492 mobmuplat_ctl 0;
#X obj 47 41 receive fromSystem;
#X obj 47 68 list trim;
#X obj 47 95 route /tilts;
#X obj 47 122 unpack 0 0;
#X obj 231 41 receive fromGUI;
#X obj 231 68 list trim;
#X obj 170 330 send toGUI;
#X obj 21 450 s toGUI;
#X msg 21 426 list /table-rec refresh;
#X obj 21 381 r tab-refresh;
#X obj 21 403 del 4500;
#X obj 105 310 s transp;
#X obj 105 216 int;
#X obj 105 263 spigot;
#X obj 166 263 spigot;
#X obj 105 286 * 0.25;
#X obj 199 191 tgl 15 0 empty empty empty 17 7 0 10 #fcfcfc #000000 #000000 0 1;
#X obj 362 122 s plong;
#X obj 318 146 s rec;
#X obj 555 330 s glength;
#X obj 494 310 * 0.8;
#X obj 494 330 s start;
#X obj 318 122 sel 1;
#X msg 170 310 list /tdispl transp: \$1;
#X obj 237 191 loadbang;
#X msg 237 216 1;
#X obj 199 216 - 1;
#X obj 199 237 * -1;
#X obj 501 41 loadbang;
#X obj 501 101 send toGUI;
#X text 917 102 glength 50-500 start 0-0.8 repeat 50-1000 repeat_jitter 0-500 start_jitter 0-500, f 80;
#X obj 371 191 receive fromGUI;
#X obj 371 216 list trim;
#X obj 372 237 route /XYPad;
#X obj 372 263 route touch;
#X obj 372 286 unpack 0 0 0 0, f 31;
#X obj 433 349 s pgran;
#X obj 433 310 sel 2;
#X obj 433 330 change;
#X obj 676 170 loadbang;
#X text 918 120 del_fmod 0-100 del_depth 0-500 del_offs 0-500 del_feedb 0-100, f 62;
#X obj 47 168 s repeat;
#X obj 105 237 + 0;
#X obj 307 426 f;
#X obj 342 426 + 1;
#X obj 308 381 loadbang;
#X obj 307 450 s menuupd;
#X obj 184 450 send toGUI;
#X obj 184 403 r menuupd;
#X msg 184 426 list /count \$1;
#X obj 414 146 s menupos;
#X obj 365 381 r menupos;
#X obj 801 123 r menuupd;
#X obj 801 170 route 0 1 2 3 4 5 6 7 8 9 10 11 12, f 89;
#X obj 272 168 s menupos;
#X obj 272 122 sel 1;
#X obj 272 146 bang;
#X msg 501 68 list /myMenu prog1 prog2 prog3 prog4 prog5 prog6 prog7 prog8 prog9 prog10 prog11 prog12 prog13;
#X obj 231 95 route /next /quant /rec /plong /myMenu;
#X obj 414 122 unpack f s;
#X msg 308 403 0;
#X obj 801 146 - 1;
#X obj 584 146 send toGUI;
#X obj 584 101 r quant_b;
#X msg 584 123 list /quant \$1;
#X obj 132 191 r quant_b;
#X obj 105 168 expr pow(($f1+1) \, 1.3)*7+1;
#X msg 1314 201 \; repeat_jitter 320 \; start_jitter 20 \; del_fmod 5 \; del_depth 10 \; del_offs 300 \; del_feedb 96 \; quant_b 1;
#X msg 676 201 \; repeat_jitter 320 \; start_jitter 20 \; del_fmod 5 \; del_depth 5 \; del_offs 300 \; del_feedb 30 \; quant_b 1;
#X msg 931 322 \; repeat_jitter 320 \; start_jitter 20 \; del_fmod 5 \; del_depth 30 \; del_offs 300 \; del_feedb 96 \; quant_b 0;
#X floatatom 582 366 5 0 0 0 - - - 0;
#X obj 555 310 expr ($f1*850)+30;
#X msg 804 201 \; repeat_jitter 320 \; start_jitter 20 \; del_fmod 5 \; del_depth 11 \; del_offs 300 \; del_feedb 30 \; quant_b 1;
#X msg 676 321 \; repeat_jitter 320 \; start_jitter 20 \; del_fmod 8 \; del_depth 1 \; del_offs 300 \; del_feedb 30 \; quant_b 1;
#X msg 930 201 \; repeat_jitter 320 \; start_jitter 20 \; del_fmod 5 \; del_depth 20 \; del_offs 300 \; del_feedb 96 \; quant_b 1;
#X msg 1058 201 \; repeat_jitter 320 \; start_jitter 20 \; del_fmod 35 \; del_depth 30 \; del_offs 300 \; del_feedb 96 \; quant_b 0;
#X msg 1187 321 \; repeat_jitter 320 \; start_jitter 20 \; del_fmod 5 \; del_depth 10 \; del_offs 300 \; del_feedb 90 \; quant_b 0;
#X msg 1187 201 \; repeat_jitter 320 \; start_jitter 20 \; del_fmod 5 \; del_depth 10 \; del_offs 300 \; del_feedb 99 \; quant_b 0;
#X msg 1314 321 \; repeat_jitter 320 \; start_jitter 20 \; del_fmod 5 \; del_depth 10 \; del_offs 400 \; del_feedb 96 \; quant_b 1;
#X msg 1444 201 \; repeat_jitter 320 \; start_jitter 80 \; del_fmod 5 \; del_depth 10 \; del_offs 800 \; del_feedb 96 \; quant_b 1;
#X msg 804 321 \; repeat_jitter 320 \; start_jitter 20 \; del_fmod 5 \; del_depth 11 \; del_offs 300 \; del_feedb 48;
#X msg 1059 321 \; repeat_jitter 320 \; start_jitter 220 \; del_fmod 135 \; del_depth 100 \; del_offs 300 \; del_feedb 100 \; quant_b 0;
#X obj 47 146 expr pow(($f1+1) \, 2) * 90 + 20;
#X obj 18 228 s vol;
#X floatatom 44 307 5 0 0 0 - - - 0;
#X obj 18 183 + 1;
#X obj 18 204 / 2;
#X connect 0 0 1 0;
#X connect 1 0 2 0;
#X connect 2 0 3 0;
#X connect 3 0 82 0;
#X connect 3 0 85 0;
#X connect 3 1 66 0;
#X connect 4 0 5 0;
#X connect 5 0 58 0;
#X connect 8 0 7 0;
#X connect 9 0 10 0;
#X connect 10 0 8 0;
#X connect 12 0 42 0;
#X connect 13 0 15 0;
#X connect 14 0 15 0;
#X connect 15 0 11 0;
#X connect 15 0 23 0;
#X connect 16 0 13 1;
#X connect 16 0 26 0;
#X connect 20 0 21 0;
#X connect 22 0 18 0;
#X connect 23 0 6 0;
#X connect 24 0 25 0;
#X connect 25 0 16 0;
#X connect 26 0 27 0;
#X connect 27 0 14 1;
#X connect 28 0 57 0;
#X connect 31 0 32 0;
#X connect 32 0 33 0;
#X connect 33 0 34 0;
#X connect 34 0 35 0;
#X connect 35 1 37 0;
#X connect 35 2 20 0;
#X connect 35 3 71 0;
#X connect 37 1 38 0;
#X connect 38 0 36 0;
#X connect 39 0 68 0;
#X connect 42 0 13 0;
#X connect 43 0 44 0;
#X connect 43 0 46 0;
#X connect 44 0 43 1;
#X connect 45 0 60 0;
#X connect 48 0 49 0;
#X connect 49 0 47 0;
#X connect 51 0 43 0;
#X connect 52 0 61 0;
#X connect 53 0 68 0;
#X connect 53 1 73 0;
#X connect 53 2 72 0;
#X connect 53 3 80 0;
#X connect 53 4 74 0;
#X connect 53 5 69 0;
#X connect 53 6 75 0;
#X connect 53 7 81 0;
#X connect 53 8 77 0;
#X connect 53 9 76 0;
#X connect 53 10 67 0;
#X connect 53 11 78 0;
#X connect 53 12 79 0;
#X connect 55 0 56 0;
#X connect 56 0 54 0;
#X connect 57 0 29 0;
#X connect 58 0 55 0;
#X connect 58 1 16 0;
#X connect 58 2 22 0;
#X connect 58 3 17 0;
#X connect 58 4 59 0;
#X connect 59 0 50 0;
#X connect 60 0 43 0;
#X connect 61 0 53 0;
#X connect 63 0 64 0;
#X connect 64 0 62 0;
#X connect 65 0 16 0;
#X connect 66 0 14 0;
#X connect 66 0 12 0;
#X connect 71 0 19 0;
#X connect 71 0 70 0;
#X connect 82 0 41 0;
#X connect 85 0 86 0;
#X connect 86 0 83 0;
#X restore 158 196 pd mobmuplat_ctl;
#X text 78 117 fmod depth offs feedb;
#X text 55 129 [0.01Hz] [ms] [ms] [0.01];
#N canvas 281 105 513 691 mod-delay 0;
#X obj 147 193 line~;
#X obj 148 159 pack 0 100;
#X obj 264 307 line~;
#X obj 264 285 pack 0 100;
#X obj 264 263 * 0.01;
#X obj 33 363 +~;
#X obj 156 333 *~;
#X obj 48 227 *~;
#X obj 48 125 / 100;
#X obj 33 397 hip~ 5;
#X obj 48 193 +~ 1;
#X obj 48 159 osc~ 0;
#X text 78 108 <-- cycle frequency (hundredths);
#X text 163 141 <-- cycle depth (msec);
#X text 322 263 <-- feedback (hundredths);
#X obj 221 193 line~;
#X obj 223 159 pack 0 100;
#X text 296 160 <-- offset (msec);
#X obj 223 227 +~ 1.46;
#X obj 48 271 +~;
#X obj 117 39 inlet;
#X obj 191 39 inlet;
#X obj 268 39 inlet;
#X obj 342 39 inlet;
#X obj 35 39 inlet~;
#X obj 33 653 outlet~;
#X obj 58 508 delwrite~ mod-del 1000;
#X obj 48 304 vd~ mod-del;
#X obj 58 483 lop~ 3000;
#X obj 33 424 expr~ tanh($v1);
#X obj 141 363 +~;
#X obj 141 397 hip~ 5;
#X obj 141 424 expr~ tanh($v1);
#X obj 141 653 outlet~;
#X obj 156 227 *~;
#X obj 58 460 hip~ 180;
#X obj 48 333 *~;
#X obj 218 487 lop~ 3000;
#X obj 218 464 hip~ 180;
#X obj 218 512 delwrite~ mod-delR 1000;
#X obj 156 304 vd~ mod-delR;
#X obj 156 271 +~;
#X obj 96 193 +~ 1;
#X obj 96 159 osc~ 0;
#X obj 101 128 / 95;
#X obj 90 551 r vol;
#X obj 33 624 *~;
#X obj 141 624 *~;
#X obj 90 572 \$1 100;
#X obj 90 593 line~;
#X floatatom 175 579 5 0 0 0 - - - 0;
#X connect 0 0 7 1;
#X connect 0 0 34 1;
#X connect 1 0 0 0;
#X connect 2 0 6 1;
#X connect 2 0 36 1;
#X connect 3 0 2 0;
#X connect 4 0 3 0;
#X connect 5 0 9 0;
#X connect 6 0 30 1;
#X connect 7 0 19 0;
#X connect 8 0 11 0;
#X connect 9 0 29 0;
#X connect 10 0 7 0;
#X connect 11 0 10 0;
#X connect 15 0 18 0;
#X connect 16 0 15 0;
#X connect 18 0 41 1;
#X connect 18 0 19 1;
#X connect 19 0 27 0;
#X connect 20 0 8 0;
#X connect 20 0 44 0;
#X connect 21 0 1 0;
#X connect 22 0 16 0;
#X connect 23 0 4 0;
#X connect 24 0 5 0;
#X connect 24 0 30 0;
#X connect 27 0 36 0;
#X connect 28 0 26 0;
#X connect 29 0 38 0;
#X connect 29 0 46 0;
#X connect 30 0 31 0;
#X connect 31 0 32 0;
#X connect 32 0 35 0;
#X connect 32 0 47 0;
#X connect 34 0 41 0;
#X connect 35 0 28 0;
#X connect 36 0 5 1;
#X connect 37 0 39 0;
#X connect 38 0 37 0;
#X connect 40 0 6 0;
#X connect 41 0 40 0;
#X connect 42 0 34 0;
#X connect 43 0 42 0;
#X connect 44 0 43 0;
#X connect 45 0 48 0;
#X connect 45 0 50 0;
#X connect 46 0 25 0;
#X connect 47 0 33 0;
#X connect 48 0 49 0;
#X connect 49 0 47 1;
#X connect 49 0 46 1;
#X restore 42 167 pd mod-delay;
#X floatatom 59 144 5 0 0 0 - del_fmod - 0;
#X floatatom 101 144 5 0 0 0 - del_depth - 0;
#X floatatom 143 145 5 0 0 0 - del_offs - 0;
#X floatatom 188 144 5 0 0 0 - del_feedb - 0;
#X obj 42 232 dac~;
#N canvas 1390 133 447 338 rec 0;
#X obj 32 41 adc~;
#X obj 86 41 bng 15 250 50 0 empty rec empty 17 7 0 10 #fc0400 #000000 #000000;
#X obj 86 93 s tab-refresh;
#N canvas 0 22 450 278 (subpatch) 0;
#X array /table-rec 411032 float 2;
#X coords 0 1 411032 -1 200 140 1 0 0;
#X restore 195 41 graph;
#X obj 27 193 loadbang;
#X obj 27 243 soundfiler;
#X obj 27 268 s length;
#X obj 32 66 tabwrite~ /table-rec;
#X msg 27 218 read -resize aaa-06.wav /table-rec;
#X listbox 136 271 20 0 0 0 - - - 0;
#X connect 0 0 7 0;
#X connect 1 0 2 0;
#X connect 1 0 7 0;
#X connect 4 0 8 0;
#X connect 5 0 6 0;
#X connect 5 1 9 0;
#X connect 8 0 5 0;
#X restore 157 222 pd rec;
#X obj 42 31 bng 15 250 50 0 empty empty empty 17 7 0 10 #fcfcfc #000000 #000000;
#X obj 96 33 tgl 15 0 empty empty empty 17 7 0 10 #fcfcfc #000000 #000000 0 1;
#X connect 0 0 5 0;
#X connect 1 0 5 0;
#X connect 5 0 10 0;
#X connect 5 1 10 1;
#X connect 6 0 5 1;
#X connect 7 0 5 2;
#X connect 8 0 5 3;
#X connect 9 0 5 4;
#X connect 12 0 0 0;
#X connect 13 0 1 0;
